# xmcd CD database file
# Copyright (C) 1993-1996 Ti Kan
#
# Track frame offsets:
#  150
#  11877
#  22273
#  33173
#  44667
#  56466
#  67599
#  79024
#  90463
#  101200
#  112880
#  123376
#  132822
#  143214
#  151378
#  163712
#  173403
#  183831
#  191716
#  202236
#  214807
#  225632
#  234821
#  247461
#  260457
#  271167
#
# Disc length: 3774 seconds
#
# Revision: 1
# Processed by: cddbd v1.5.1PL0 Copyright (c) Steve Scherf et al.
# Submitted via: Advanced CD Ripper Pro 2.0
#
DISCID=680ebc1a
DTITLE=Merle Haggard - Untamed Hawk Disc1
DYEAR=2004
DGENRE=other
TTITLE0=Track01
TTITLE1=Track02
TTITLE2=Track03
TTITLE3=Track04
TTITLE4=Track05
TTITLE5=Track06
TTITLE6=Track07
TTITLE7=Track08
TTITLE8=Track09
TTITLE9=Track10
TTITLE10=Track11
TTITLE11=Track12
TTITLE12=Track13
TTITLE13=Track14
TTITLE14=Track15
TTITLE15=Track16
TTITLE16=Track17
TTITLE17=Track18
TTITLE18=Track19
TTITLE19=Track20
TTITLE20=Track21
TTITLE21=Track22
TTITLE22=Track23
TTITLE23=Track24
TTITLE24=Track25
TTITLE25=Track26
EXTD=
EXTT0=
EXTT1=
EXTT2=
EXTT3=
EXTT4=
EXTT5=
EXTT6=
EXTT7=
EXTT8=
EXTT9=
EXTT10=
EXTT11=
EXTT12=
EXTT13=
EXTT14=
EXTT15=
EXTT16=
EXTT17=
EXTT18=
EXTT19=
EXTT20=
EXTT21=
EXTT22=
EXTT23=
EXTT24=
EXTT25=
PLAYORDER=
